<?xml version="1.0" encoding="UTF-8" standalone="no"?>
<!DOCTYPE svg PUBLIC "-//W3C//DTD SVG 1.1//EN"
 "http://www.w3.org/Graphics/SVG/1.1/DTD/svg11.dtd">
<!-- Generated by graphviz version 2.38.0 (20140413.2041)
 -->
<!-- Title: GWAS Pages: 1 -->
<svg width="492pt" height="607pt"
 viewBox="0.00 0.00 491.69 606.60" xmlns="http://www.w3.org/2000/svg" xmlns:xlink="http://www.w3.org/1999/xlink">
<g id="graph0" class="graph" transform="scale(1 1) rotate(0) translate(4 602.6)">
<title>GWAS</title>
<polygon fill="white" stroke="none" points="-4,4 -4,-602.6 487.69,-602.6 487.69,4 -4,4"/>
<!-- p0 -->
<g id="node1" class="node"><title>p0</title>
<ellipse fill="none" stroke="black" cx="195.096" cy="-580.6" rx="53.8905" ry="18"/>
<text text-anchor="middle" x="195.096" y="-576.9" font-family="Times,serif" font-size="14.00">genom_excl</text>
</g>
<!-- p1 -->
<g id="node2" class="node"><title>p1</title>
<ellipse fill="none" stroke="black" cx="195.096" cy="-508.1" rx="3.5" ry="3.5"/>
<text text-anchor="middle" x="180.596" y="-515.4" font-family="Times,serif" font-size="14.00">into</text>
</g>
<!-- p0&#45;&gt;p1 -->
<g id="edge1" class="edge"><title>p0&#45;&gt;p1</title>
<path fill="none" stroke="black" d="M195.096,-562.534C195.096,-549.98 195.096,-533.189 195.096,-521.804"/>
<polygon fill="black" stroke="black" points="198.596,-521.762 195.096,-511.762 191.596,-521.762 198.596,-521.762"/>
<text text-anchor="middle" x="224.096" y="-533.4" font-family="Times,serif" font-size="14.00">Excl_ch_2</text>
</g>
<!-- p2 -->
<g id="node3" class="node"><title>p2</title>
<ellipse fill="none" stroke="black" cx="48.0957" cy="-435.6" rx="48.1917" ry="18"/>
<text text-anchor="middle" x="48.0957" y="-431.9" font-family="Times,serif" font-size="14.00">Regenie_1</text>
</g>
<!-- p1&#45;&gt;p2 -->
<g id="edge2" class="edge"><title>p1&#45;&gt;p2</title>
<path fill="none" stroke="black" d="M191.575,-507.077C172.338,-506.877 80.0859,-504.962 60.0957,-486.6 53.7391,-480.761 50.4723,-472.2 48.8682,-463.807"/>
<polygon fill="black" stroke="black" points="52.3375,-463.342 47.6401,-453.845 45.3901,-464.199 52.3375,-463.342"/>
<text text-anchor="middle" x="94.5957" y="-475.4" font-family="Times,serif" font-size="14.00">Excl_ch_bt1</text>
</g>
<!-- p5 -->
<g id="node4" class="node"><title>p5</title>
<ellipse fill="none" stroke="black" cx="262.096" cy="-348.6" rx="67.6881" ry="18"/>
<text text-anchor="middle" x="262.096" y="-344.9" font-family="Times,serif" font-size="14.00">Regenie_2_cont</text>
</g>
<!-- p1&#45;&gt;p5 -->
<g id="edge3" class="edge"><title>p1&#45;&gt;p5</title>
<path fill="none" stroke="black" d="M196.148,-504.626C202.285,-490.2 233.767,-416.195 250.919,-375.873"/>
<polygon fill="black" stroke="black" points="254.154,-377.211 254.847,-366.639 247.712,-374.471 254.154,-377.211"/>
<text text-anchor="middle" x="273.096" y="-431.9" font-family="Times,serif" font-size="14.00">Excl_ch_cont2</text>
</g>
<!-- p3 -->
<g id="node5" class="node"><title>p3</title>
<ellipse fill="none" stroke="black" cx="416.096" cy="-435.6" rx="67.6881" ry="18"/>
<text text-anchor="middle" x="416.096" y="-431.9" font-family="Times,serif" font-size="14.00">Regenie_1_cont</text>
</g>
<!-- p1&#45;&gt;p3 -->
<g id="edge4" class="edge"><title>p1&#45;&gt;p3</title>
<path fill="none" stroke="black" d="M198.173,-506.179C207.693,-503.324 237.501,-494.355 262.096,-486.6 296.659,-475.702 335.468,-463.099 365.48,-453.273"/>
<polygon fill="black" stroke="black" points="366.89,-456.494 375.302,-450.054 364.709,-449.843 366.89,-456.494"/>
<text text-anchor="middle" x="349.096" y="-475.4" font-family="Times,serif" font-size="14.00">Excl_ch_cont1</text>
</g>
<!-- p4 -->
<g id="node6" class="node"><title>p4</title>
<ellipse fill="none" stroke="black" cx="128.096" cy="-348.6" rx="48.1917" ry="18"/>
<text text-anchor="middle" x="128.096" y="-344.9" font-family="Times,serif" font-size="14.00">Regenie_2</text>
</g>
<!-- p1&#45;&gt;p4 -->
<g id="edge5" class="edge"><title>p1&#45;&gt;p4</title>
<path fill="none" stroke="black" d="M192.702,-505.395C184.477,-499.389 157.208,-478.245 145.096,-453.6 138.641,-440.468 133.616,-403.142 130.753,-376.984"/>
<polygon fill="black" stroke="black" points="134.22,-376.481 129.695,-366.901 127.258,-377.211 134.22,-376.481"/>
<text text-anchor="middle" x="179.596" y="-431.9" font-family="Times,serif" font-size="14.00">Excl_ch_bt2</text>
</g>
<!-- p2&#45;&gt;p4 -->
<g id="edge6" class="edge"><title>p2&#45;&gt;p4</title>
<path fill="none" stroke="black" d="M42.1987,-417.504C39.7447,-407.159 38.7488,-394.165 45.0957,-384.6 52.3996,-373.593 63.9199,-366.04 76.0789,-360.858"/>
<polygon fill="black" stroke="black" points="77.3118,-364.134 85.4422,-357.341 74.8501,-357.581 77.3118,-364.134"/>
<text text-anchor="middle" x="87.0957" y="-388.4" font-family="Times,serif" font-size="14.00">regenie1_ch_bt</text>
</g>
<!-- p7 -->
<g id="node8" class="node"><title>p7</title>
<ellipse fill="none" stroke="black" cx="251.096" cy="-276.1" rx="3.5" ry="3.5"/>
<text text-anchor="middle" x="230.096" y="-283.4" font-family="Times,serif" font-size="14.00">flatten</text>
</g>
<!-- p5&#45;&gt;p7 -->
<g id="edge9" class="edge"><title>p5&#45;&gt;p7</title>
<path fill="none" stroke="black" d="M259.433,-330.534C257.474,-317.98 254.854,-301.189 253.078,-289.804"/>
<polygon fill="black" stroke="black" points="256.511,-289.102 251.511,-279.762 249.595,-290.182 256.511,-289.102"/>
<text text-anchor="middle" x="316.596" y="-301.4" font-family="Times,serif" font-size="14.00">regenie_ch_final_cont</text>
</g>
<!-- p3&#45;&gt;p5 -->
<g id="edge7" class="edge"><title>p3&#45;&gt;p5</title>
<path fill="none" stroke="black" d="M387.85,-419.01C362.885,-405.231 326.306,-385.041 299.027,-369.984"/>
<polygon fill="black" stroke="black" points="300.609,-366.86 290.163,-365.091 297.226,-372.988 300.609,-366.86"/>
<text text-anchor="middle" x="396.596" y="-388.4" font-family="Times,serif" font-size="14.00">regenie1_ch_cont</text>
</g>
<!-- p6 -->
<g id="node7" class="node"><title>p6</title>
<ellipse fill="none" stroke="black" cx="185.096" cy="-276.1" rx="3.5" ry="3.5"/>
<text text-anchor="middle" x="164.096" y="-283.4" font-family="Times,serif" font-size="14.00">flatten</text>
</g>
<!-- p4&#45;&gt;p6 -->
<g id="edge8" class="edge"><title>p4&#45;&gt;p6</title>
<path fill="none" stroke="black" d="M136.548,-330.849C142.153,-320.634 150.114,-307.655 159.096,-297.6 163.461,-292.713 169.094,-288.113 174.001,-284.514"/>
<polygon fill="black" stroke="black" points="176.135,-287.295 182.412,-278.76 172.182,-281.517 176.135,-287.295"/>
<text text-anchor="middle" x="204.596" y="-301.4" font-family="Times,serif" font-size="14.00">regenie_ch_final</text>
</g>
<!-- p8 -->
<g id="node9" class="node"><title>p8</title>
<ellipse fill="none" stroke="black" cx="209.096" cy="-232.1" rx="3.5" ry="3.5"/>
<text text-anchor="middle" x="187.596" y="-239.4" font-family="Times,serif" font-size="14.00">concat</text>
</g>
<!-- p6&#45;&gt;p8 -->
<g id="edge10" class="edge"><title>p6&#45;&gt;p8</title>
<path fill="none" stroke="black" d="M186.386,-272.842C189.386,-267.593 196.997,-254.273 202.585,-244.494"/>
<polygon fill="black" stroke="black" points="205.757,-245.997 207.68,-235.578 199.679,-242.524 205.757,-245.997"/>
</g>
<!-- p7&#45;&gt;p8 -->
<g id="edge11" class="edge"><title>p7&#45;&gt;p8</title>
<path fill="none" stroke="black" d="M248.838,-272.842C243.202,-267.206 228.263,-252.267 218.392,-242.396"/>
<polygon fill="black" stroke="black" points="220.71,-239.765 211.164,-235.168 215.76,-244.714 220.71,-239.765"/>
</g>
<!-- p9 -->
<g id="node10" class="node"><title>p9</title>
<ellipse fill="none" stroke="black" cx="209.096" cy="-159.6" rx="70.3881" ry="18"/>
<text text-anchor="middle" x="209.096" y="-155.9" font-family="Times,serif" font-size="14.00">GWA_summary</text>
</g>
<!-- p8&#45;&gt;p9 -->
<g id="edge12" class="edge"><title>p8&#45;&gt;p9</title>
<path fill="none" stroke="black" d="M209.096,-228.422C209.096,-221.76 209.096,-203.84 209.096,-188.092"/>
<polygon fill="black" stroke="black" points="212.596,-187.703 209.096,-177.703 205.596,-187.703 212.596,-187.703"/>
<text text-anchor="middle" x="265.096" y="-199.4" font-family="Times,serif" font-size="14.00">regenie_ch_final_all</text>
</g>
<!-- p10 -->
<g id="node11" class="node"><title>p10</title>
<ellipse fill="black" stroke="black" cx="174.096" cy="-72.6" rx="1.8" ry="1.8"/>
</g>
<!-- p9&#45;&gt;p10 -->
<g id="edge13" class="edge"><title>p9&#45;&gt;p10</title>
<path fill="none" stroke="black" d="M197.676,-141.641C194.262,-136.062 190.731,-129.718 188.096,-123.6 182.604,-110.85 178.653,-95.3462 176.377,-85.0154"/>
<polygon fill="black" stroke="black" points="179.739,-83.9848 174.323,-74.8791 172.879,-85.3751 179.739,-83.9848"/>
<text text-anchor="middle" x="212.096" y="-112.4" font-family="Times,serif" font-size="14.00">Ch_final</text>
</g>
<!-- p11 -->
<g id="node12" class="node"><title>p11</title>
<ellipse fill="none" stroke="black" cx="272.096" cy="-72.6" rx="77.9862" ry="18"/>
<text text-anchor="middle" x="272.096" y="-68.9" font-family="Times,serif" font-size="14.00">GWA_postProcess</text>
</g>
<!-- p9&#45;&gt;p11 -->
<g id="edge14" class="edge"><title>p9&#45;&gt;p11</title>
<path fill="none" stroke="black" d="M222.393,-141.596C226.795,-135.906 231.693,-129.507 236.096,-123.6 242.011,-115.664 248.353,-106.933 254.041,-99.0182"/>
<polygon fill="black" stroke="black" points="256.93,-100.995 259.905,-90.8262 251.238,-96.9204 256.93,-100.995"/>
<text text-anchor="middle" x="276.596" y="-112.4" font-family="Times,serif" font-size="14.00">Ch_trigger</text>
</g>
<!-- p12 -->
<g id="node13" class="node"><title>p12</title>
<ellipse fill="black" stroke="black" cx="272.096" cy="-1.8" rx="1.8" ry="1.8"/>
</g>
<!-- p11&#45;&gt;p12 -->
<g id="edge15" class="edge"><title>p11&#45;&gt;p12</title>
<path fill="none" stroke="black" d="M272.096,-54.5933C272.096,-42.0587 272.096,-25.3431 272.096,-14.3356"/>
<polygon fill="black" stroke="black" points="275.596,-14.1898 272.096,-4.18985 268.596,-14.1899 275.596,-14.1898"/>
<text text-anchor="middle" x="299.096" y="-25.4" font-family="Times,serif" font-size="14.00">Ch_signif</text>
</g>
</g>
</svg>
